<svg id="svg" xmlns="http://www.w3.org/2000/svg" xmlns:xlink="http://www.w3.org/1999/xlink" width="400" height="400" viewBox="0, 0, 400,400" version="1.1"><g id="svgg"><path id="path0" d="M0.000 46.200 L 0.000 61.600 11.727 61.600 C 24.650 61.600,26.554 61.860,28.491 63.891 C 30.610 66.112,30.570 65.613,30.793 92.600 L 31.000 117.800 31.974 119.500 C 34.036 123.102,32.987 122.971,61.800 123.200 C 89.204 123.417,88.132 123.325,90.250 125.662 C 92.099 127.702,92.193 128.223,92.338 137.200 C 92.619 154.598,94.940 153.332,62.200 153.627 C 32.508 153.894,32.675 153.864,31.224 159.089 C 30.442 161.906,30.654 362.228,31.441 364.540 C 32.131 366.565,33.639 367.968,35.960 368.745 C 37.780 369.354,115.500 369.390,117.688 368.782 C 123.035 367.297,122.966 367.682,123.200 338.200 C 123.421 310.369,123.287 311.744,125.997 309.464 C 127.959 307.813,128.305 307.800,169.800 307.800 L 209.400 307.800 211.400 308.800 C 214.944 310.572,215.373 312.013,215.388 322.194 C 215.402 331.880,215.149 333.924,213.728 335.612 C 211.457 338.311,212.820 338.179,185.000 338.400 L 159.800 338.600 157.800 339.600 C 154.209 341.395,153.809 342.780,153.811 353.400 C 153.812 363.411,154.105 365.050,156.257 367.079 C 158.571 369.262,157.717 369.223,200.871 369.108 L 241.000 369.000 242.700 368.026 C 243.868 367.357,244.682 366.481,245.300 365.226 L 246.200 363.400 246.200 323.400 C 246.200 276.768,246.496 279.610,241.400 277.366 C 240.960 277.172,229.260 276.921,215.400 276.807 L 190.200 276.600 188.433 275.600 C 184.739 273.508,185.015 276.951,184.892 231.471 C 184.816 203.189,184.914 191.061,185.228 189.895 C 185.787 187.820,187.768 185.813,189.819 185.243 C 192.055 184.623,331.145 184.623,333.381 185.243 C 335.403 185.805,337.395 187.797,337.957 189.819 C 338.581 192.068,338.577 331.146,337.953 333.395 C 336.800 337.549,334.240 338.401,322.923 338.398 C 313.956 338.395,312.312 338.147,310.358 336.503 C 307.622 334.201,307.821 338.540,307.600 276.400 L 307.400 220.200 306.494 218.743 C 304.405 215.384,303.080 215.279,262.400 215.272 C 211.782 215.263,215.882 213.990,215.673 229.789 C 215.531 240.490,215.755 242.022,217.741 243.937 C 220.112 246.223,219.398 246.162,246.400 246.389 C 273.848 246.621,273.331 246.573,275.095 249.055 C 276.803 251.457,276.795 251.200,276.798 307.280 C 276.800 366.381,276.722 364.413,279.163 366.856 C 281.604 369.299,278.829 369.195,341.900 369.198 L 400.000 369.200 400.000 353.800 L 400.000 338.400 388.100 338.398 C 375.428 338.395,374.009 338.229,371.958 336.503 C 369.159 334.148,369.422 348.627,369.200 184.200 C 369.010 42.949,368.966 35.737,368.289 34.498 C 367.898 33.782,366.831 32.702,365.918 32.098 L 364.259 31.000 293.288 30.896 C 218.465 30.786,220.280 30.743,217.984 32.675 C 215.765 34.542,215.817 33.927,215.596 61.000 C 215.322 94.642,216.394 92.637,198.846 92.340 C 183.933 92.087,185.056 94.514,184.800 62.000 C 184.580 34.039,184.612 34.385,182.081 32.530 C 179.645 30.745,182.594 30.800,89.140 30.800 L 0.000 30.800 0.000 46.200 M149.636 62.649 C 150.829 63.201,151.810 64.041,152.436 65.049 L 153.400 66.600 153.509 168.600 C 153.630 281.188,153.815 272.738,151.176 274.959 C 149.268 276.565,146.671 276.890,137.000 276.736 C 122.218 276.500,123.200 278.632,123.200 246.769 C 123.200 213.582,124.179 215.521,107.400 215.478 C 98.143 215.455,96.720 215.682,94.659 217.515 C 92.500 219.436,92.617 216.364,92.400 277.000 L 92.200 333.000 91.253 334.653 C 89.393 337.898,88.350 338.181,77.700 338.332 C 67.079 338.483,65.166 338.153,63.425 335.866 C 61.531 333.380,61.566 334.931,61.686 260.600 L 61.800 190.200 62.800 188.433 C 64.821 184.863,63.497 185.028,92.000 184.800 C 121.891 184.561,121.416 184.654,122.775 178.760 C 123.359 176.224,123.346 101.118,122.760 98.388 C 121.488 92.455,121.212 92.400,92.747 92.400 C 60.198 92.400,61.906 93.162,61.669 78.527 C 61.464 65.853,62.384 63.194,67.400 61.968 C 70.802 61.136,147.742 61.773,149.636 62.649 M334.436 62.649 C 335.629 63.201,336.610 64.041,337.236 65.049 L 338.200 66.600 338.200 107.600 C 338.200 153.636,338.403 150.538,335.257 152.494 L 333.800 153.400 262.600 153.514 C 185.840 153.636,189.037 153.723,186.875 151.459 C 183.939 148.384,183.778 128.757,186.662 125.518 C 188.646 123.290,185.402 123.417,246.011 123.200 L 301.822 123.000 303.774 121.995 C 307.153 120.256,307.377 119.452,307.526 108.540 C 307.761 91.342,310.238 92.660,277.200 92.400 L 251.800 92.200 249.952 91.114 C 246.828 89.277,246.621 88.489,246.473 77.896 C 246.299 65.469,246.971 63.397,251.600 62.065 C 254.807 61.143,332.361 61.690,334.436 62.649 " stroke="none" fill="#f3fbfb" fill-rule="evenodd"></path><path id="path1" d="M0.000 15.400 L 0.000 30.800 89.140 30.800 C 182.594 30.800,179.645 30.745,182.081 32.530 C 184.612 34.385,184.580 34.039,184.800 62.000 C 185.056 94.514,183.933 92.087,198.846 92.340 C 216.394 92.637,215.322 94.642,215.596 61.000 C 215.817 33.927,215.765 34.542,217.984 32.675 C 220.280 30.743,218.465 30.786,293.288 30.896 L 364.259 31.000 365.918 32.098 C 366.831 32.702,367.898 33.782,368.289 34.498 C 368.966 35.737,369.010 42.949,369.200 184.200 C 369.422 348.627,369.159 334.148,371.958 336.503 C 374.009 338.229,375.428 338.395,388.100 338.398 L 400.000 338.400 400.000 169.200 L 400.000 0.000 200.000 0.000 L 0.000 0.000 0.000 15.400 M0.000 230.800 L 0.000 400.000 200.000 400.000 L 400.000 400.000 400.000 384.600 L 400.000 369.200 341.900 369.198 C 278.829 369.195,281.604 369.299,279.163 366.856 C 276.722 364.413,276.800 366.381,276.798 307.280 C 276.795 251.200,276.803 251.457,275.095 249.055 C 273.331 246.573,273.848 246.621,246.400 246.389 C 219.398 246.162,220.112 246.223,217.741 243.937 C 215.755 242.022,215.531 240.490,215.673 229.789 C 215.882 213.990,211.782 215.263,262.400 215.272 C 303.080 215.279,304.405 215.384,306.494 218.743 L 307.400 220.200 307.600 276.400 C 307.821 338.540,307.622 334.201,310.358 336.503 C 312.312 338.147,313.956 338.395,322.923 338.398 C 334.240 338.401,336.800 337.549,337.953 333.395 C 338.577 331.146,338.581 192.068,337.957 189.819 C 337.395 187.797,335.403 185.805,333.381 185.243 C 331.145 184.623,192.055 184.623,189.819 185.243 C 187.768 185.813,185.787 187.820,185.228 189.895 C 184.914 191.061,184.816 203.189,184.892 231.471 C 185.015 276.951,184.739 273.508,188.433 275.600 L 190.200 276.600 215.400 276.807 C 229.260 276.921,240.960 277.172,241.400 277.366 C 246.496 279.610,246.200 276.768,246.200 323.400 L 246.200 363.400 245.300 365.226 C 244.682 366.481,243.868 367.357,242.700 368.026 L 241.000 369.000 200.871 369.108 C 157.717 369.223,158.571 369.262,156.257 367.079 C 154.105 365.050,153.812 363.411,153.811 353.400 C 153.809 342.780,154.209 341.395,157.800 339.600 L 159.800 338.600 185.000 338.400 C 217.842 338.139,215.413 339.435,215.388 322.194 C 215.373 312.013,214.944 310.572,211.400 308.800 L 209.400 307.800 169.800 307.800 C 128.305 307.800,127.959 307.813,125.997 309.464 C 123.287 311.744,123.421 310.369,123.200 338.200 C 122.966 367.682,123.035 367.297,117.688 368.782 C 115.500 369.390,37.780 369.354,35.960 368.745 C 33.639 367.968,32.131 366.565,31.441 364.540 C 30.654 362.228,30.442 161.906,31.224 159.089 C 32.675 153.864,32.508 153.894,62.200 153.627 C 94.940 153.332,92.619 154.598,92.338 137.200 C 92.193 128.223,92.099 127.702,90.250 125.662 C 88.132 123.325,89.204 123.417,61.800 123.200 C 32.987 122.971,34.036 123.102,31.974 119.500 L 31.000 117.800 30.793 92.600 C 30.515 58.941,32.151 61.600,11.727 61.600 L 0.000 61.600 0.000 230.800 M67.400 61.968 C 62.384 63.194,61.464 65.853,61.669 78.527 C 61.906 93.162,60.198 92.400,92.747 92.400 C 121.212 92.400,121.488 92.455,122.760 98.388 C 123.346 101.118,123.359 176.224,122.775 178.760 C 121.416 184.654,121.891 184.561,92.000 184.800 C 63.497 185.028,64.821 184.863,62.800 188.433 L 61.800 190.200 61.686 260.600 C 61.566 334.931,61.531 333.380,63.425 335.866 C 65.166 338.153,67.079 338.483,77.700 338.332 C 88.350 338.181,89.393 337.898,91.253 334.653 L 92.200 333.000 92.400 277.000 C 92.617 216.364,92.500 219.436,94.659 217.515 C 96.720 215.682,98.143 215.455,107.400 215.478 C 124.179 215.521,123.200 213.582,123.200 246.769 C 123.200 278.632,122.218 276.500,137.000 276.736 C 146.671 276.890,149.268 276.565,151.176 274.959 C 153.815 272.738,153.630 281.188,153.509 168.600 L 153.400 66.600 152.436 65.049 C 150.289 61.595,153.142 61.808,108.200 61.737 C 86.420 61.703,68.060 61.806,67.400 61.968 M251.600 62.065 C 246.971 63.397,246.299 65.469,246.473 77.896 C 246.621 88.489,246.828 89.277,249.952 91.114 L 251.800 92.200 277.200 92.400 C 310.238 92.660,307.761 91.342,307.526 108.540 C 307.377 119.452,307.153 120.256,303.774 121.995 L 301.822 123.000 246.011 123.200 C 195.795 123.380,190.060 123.465,188.800 124.045 C 185.278 125.667,184.839 127.230,184.820 138.200 C 184.803 147.902,185.060 149.558,186.875 151.459 C 189.037 153.723,185.840 153.636,262.600 153.514 L 333.800 153.400 335.257 152.494 C 338.403 150.538,338.200 153.636,338.200 107.600 L 338.200 66.600 337.236 65.049 C 335.088 61.594,337.968 61.809,292.800 61.731 C 267.079 61.687,252.505 61.805,251.600 62.065 " stroke="none" fill="#08c9c8" fill-rule="evenodd"></path></g></svg>