<svg id="svg" xmlns="http://www.w3.org/2000/svg" xmlns:xlink="http://www.w3.org/1999/xlink" width="400" height="400" viewBox="0, 0, 400,400" version="1.1"><g id="svgg"><path id="path0" d="M4.300 30.703 L 0.000 30.827 0.000 46.214 L 0.000 61.600 11.380 61.600 C 26.394 61.600,28.067 62.007,29.856 66.099 C 30.576 67.745,30.607 72.632,30.800 216.000 C 31.022 380.187,30.765 365.456,33.444 367.563 C 35.519 369.195,36.182 369.219,77.671 369.108 C 123.633 368.984,119.978 369.292,121.995 365.375 C 124.110 361.269,123.604 343.892,121.289 341.142 C 119.099 338.539,119.965 338.620,92.200 338.400 L 67.000 338.200 65.300 337.226 C 64.132 336.557,63.318 335.681,62.700 334.426 L 61.800 332.600 61.800 230.800 L 61.800 129.000 62.700 127.174 C 64.388 123.748,65.488 123.423,75.884 123.267 C 86.250 123.112,88.297 123.466,90.318 125.767 C 92.434 128.177,92.400 127.220,92.400 185.156 C 92.400 243.371,92.337 241.601,94.475 243.883 C 96.786 246.349,92.797 246.181,154.000 246.400 C 212.686 246.610,210.957 246.554,212.956 248.328 C 215.160 250.285,215.180 250.494,215.217 273.000 C 215.278 309.798,214.373 307.737,230.428 307.673 C 240.606 307.633,242.066 307.398,243.890 305.508 C 246.362 302.944,246.182 309.406,246.400 215.200 C 246.518 164.311,246.751 128.270,246.965 127.800 C 249.051 123.230,247.732 123.432,277.000 123.200 C 305.436 122.974,304.361 123.099,306.415 119.777 C 308.171 116.934,308.470 100.274,306.830 96.600 C 304.863 92.192,307.506 92.437,261.800 92.420 C 219.136 92.403,219.957 92.363,217.760 94.560 C 215.331 96.989,215.454 94.069,215.218 154.600 C 214.984 214.373,215.105 211.399,212.822 213.320 C 210.216 215.513,192.609 216.230,188.788 214.300 C 184.409 212.088,184.742 218.688,184.881 136.800 C 185.017 57.007,184.622 64.821,188.621 62.800 L 190.600 61.800 261.400 61.800 C 338.879 61.800,334.104 61.646,336.358 64.213 C 338.422 66.564,338.396 65.994,338.396 107.800 C 338.396 149.081,338.400 148.988,336.520 151.222 C 334.657 153.436,335.265 153.384,308.200 153.610 C 278.483 153.858,278.927 153.781,277.391 158.956 C 276.486 162.002,276.501 299.649,277.407 302.697 C 278.853 307.566,278.563 307.518,307.400 307.728 C 340.405 307.969,338.394 306.969,338.398 323.154 C 338.401 334.757,337.577 336.938,332.806 337.961 C 330.057 338.551,192.995 338.564,190.440 337.975 C 184.823 336.680,185.035 337.803,184.800 308.000 C 184.579 279.970,184.668 280.906,182.024 278.681 C 179.996 276.975,180.651 277.000,138.200 277.000 L 97.800 277.000 96.147 277.947 C 92.906 279.804,92.619 280.857,92.468 291.440 C 92.224 308.632,89.826 307.337,122.400 307.608 C 149.271 307.832,148.972 307.809,151.341 309.915 C 153.397 311.744,153.385 311.602,153.600 338.200 C 153.819 365.402,153.791 365.098,156.315 367.338 C 158.475 369.255,152.362 369.164,280.100 369.182 L 400.000 369.200 400.000 353.825 L 400.000 338.451 387.300 338.325 C 367.811 338.133,369.521 341.077,369.221 307.200 C 368.969 278.701,369.134 280.020,365.567 278.000 L 363.800 277.000 338.600 276.800 L 313.400 276.600 311.600 275.600 C 310.312 274.885,309.540 274.077,308.888 272.762 L 307.975 270.925 307.946 231.362 C 307.915 188.856,307.886 189.606,309.657 187.457 C 311.536 185.178,313.473 184.798,323.173 184.810 C 339.370 184.828,338.141 182.391,338.400 215.000 L 338.600 240.200 339.600 242.200 C 341.414 245.828,342.734 246.200,353.800 246.200 C 365.316 246.200,367.176 245.612,368.667 241.501 C 369.321 239.699,369.408 38.167,368.757 35.819 C 368.208 33.844,366.251 31.847,364.181 31.151 C 362.123 30.459,165.533 30.131,161.022 30.812 C 157.497 31.344,155.901 32.334,154.728 34.715 L 153.800 36.600 153.600 123.400 C 153.417 203.027,153.346 210.299,152.741 211.401 C 150.850 214.847,149.498 215.202,138.313 215.191 C 126.865 215.180,125.686 214.808,123.765 210.600 C 123.554 210.137,123.316 186.236,123.200 153.800 L 123.000 97.800 122.000 96.033 C 119.978 92.461,121.330 92.628,92.600 92.400 C 59.351 92.136,61.341 93.214,61.680 75.646 C 61.966 60.837,60.297 61.600,92.400 61.600 C 124.972 61.600,123.396 62.447,123.130 45.084 C 122.931 32.047,122.365 31.275,112.635 30.750 C 107.397 30.468,13.869 30.427,4.300 30.703 " stroke="none" fill="#f3fbfb" fill-rule="evenodd"></path><path id="path1" d="M-0.000 15.300 L -0.000 30.600 52.300 30.475 C 120.667 30.311,119.829 30.262,122.110 34.540 C 123.308 36.789,123.690 52.509,122.634 56.141 C 121.065 61.540,120.731 61.600,92.400 61.600 C 60.297 61.600,61.966 60.837,61.680 75.646 C 61.341 93.214,59.351 92.136,92.600 92.400 C 121.330 92.628,119.978 92.461,122.000 96.033 L 123.000 97.800 123.200 153.800 C 123.316 186.236,123.554 210.137,123.765 210.600 C 125.686 214.808,126.865 215.180,138.313 215.191 C 149.498 215.202,150.850 214.847,152.741 211.401 C 153.346 210.299,153.417 203.027,153.600 123.400 L 153.800 36.600 154.728 34.715 C 155.901 32.334,157.497 31.344,161.022 30.812 C 165.533 30.131,362.123 30.459,364.181 31.151 C 366.251 31.847,368.208 33.844,368.757 35.819 C 369.408 38.167,369.321 239.699,368.667 241.501 C 367.176 245.612,365.316 246.200,353.800 246.200 C 342.734 246.200,341.414 245.828,339.600 242.200 L 338.600 240.200 338.400 215.000 C 338.141 182.391,339.370 184.828,323.173 184.810 C 313.473 184.798,311.536 185.178,309.657 187.457 C 307.886 189.606,307.915 188.856,307.946 231.362 L 307.975 270.925 308.888 272.762 C 309.540 274.077,310.312 274.885,311.600 275.600 L 313.400 276.600 338.600 276.800 L 363.800 277.000 365.567 278.000 C 369.134 280.020,368.969 278.701,369.221 307.200 C 369.521 341.077,367.811 338.133,387.300 338.325 L 400.000 338.451 400.000 169.225 L 400.000 0.000 200.000 0.000 L 0.000 0.000 -0.000 15.300 M0.000 230.800 L 0.000 400.000 200.000 400.000 L 400.000 400.000 400.000 384.600 L 400.000 369.200 280.100 369.182 C 152.362 369.164,158.475 369.255,156.315 367.338 C 153.791 365.098,153.819 365.402,153.600 338.200 C 153.385 311.602,153.397 311.744,151.341 309.915 C 148.972 307.809,149.271 307.832,122.400 307.608 C 89.826 307.337,92.224 308.632,92.468 291.440 C 92.619 280.857,92.906 279.804,96.147 277.947 L 97.800 277.000 138.200 277.000 C 180.651 277.000,179.996 276.975,182.024 278.681 C 184.668 280.906,184.579 279.970,184.800 308.000 C 185.035 337.803,184.823 336.680,190.440 337.975 C 192.995 338.564,330.057 338.551,332.806 337.961 C 337.577 336.938,338.401 334.757,338.398 323.154 C 338.394 306.969,340.405 307.969,307.400 307.728 C 278.563 307.518,278.853 307.566,277.407 302.697 C 276.501 299.649,276.486 162.002,277.391 158.956 C 278.927 153.781,278.483 153.858,308.200 153.610 C 335.265 153.384,334.657 153.436,336.520 151.222 C 338.400 148.988,338.396 149.081,338.396 107.800 C 338.396 65.994,338.422 66.564,336.358 64.213 C 334.104 61.646,338.879 61.800,261.400 61.800 L 190.600 61.800 188.621 62.800 C 184.622 64.821,185.017 57.007,184.881 136.800 C 184.756 210.325,184.751 210.004,186.129 212.080 C 188.713 215.969,208.577 216.892,212.822 213.320 C 215.105 211.399,214.984 214.373,215.218 154.600 C 215.454 94.069,215.331 96.989,217.760 94.560 C 219.957 92.363,219.136 92.403,261.800 92.420 C 307.506 92.437,304.863 92.192,306.830 96.600 C 308.470 100.274,308.171 116.934,306.415 119.777 C 304.361 123.099,305.436 122.974,277.000 123.200 C 247.732 123.432,249.051 123.230,246.965 127.800 C 246.751 128.270,246.518 164.311,246.400 215.200 C 246.182 309.406,246.362 302.944,243.890 305.508 C 242.066 307.398,240.606 307.633,230.428 307.673 C 214.373 307.737,215.278 309.798,215.217 273.000 C 215.180 250.494,215.160 250.285,212.956 248.328 C 210.957 246.554,212.686 246.610,154.000 246.400 C 92.797 246.181,96.786 246.349,94.475 243.883 C 92.337 241.601,92.400 243.371,92.400 185.156 C 92.400 127.220,92.434 128.177,90.318 125.767 C 88.297 123.466,86.250 123.112,75.884 123.267 C 65.488 123.423,64.388 123.748,62.700 127.174 L 61.800 129.000 61.800 230.800 L 61.800 332.600 62.700 334.426 C 63.318 335.681,64.132 336.557,65.300 337.226 L 67.000 338.200 92.200 338.400 C 119.965 338.620,119.099 338.539,121.289 341.142 C 123.604 343.892,124.110 361.269,121.995 365.375 C 119.978 369.292,123.633 368.984,77.671 369.108 C 36.182 369.219,35.519 369.195,33.444 367.563 C 30.765 365.456,31.022 380.187,30.800 216.000 C 30.607 72.632,30.576 67.745,29.856 66.099 C 28.067 62.007,26.394 61.600,11.380 61.600 L 0.000 61.600 0.000 230.800 " stroke="none" fill="#04cbcb" fill-rule="evenodd"></path></g></svg>